Coordinates
version=1
nRows=8
nColumns=63
inDegrees=yes

Units are S.I. units (second, meters, Newtons, ...)
If the header above contains a line with 'inDegrees', this indicates whether rotational values are in degrees (yes) or radians (no).

endheader
time	pelvis_tilt	pelvis_list	pelvis_rotation	pelvis_tx	pelvis_ty	pelvis_tz	hip_flexion_r	hip_adduction_r	hip_rotation_r	knee_angle_r	knee_angle_r_beta	ankle_angle_r	subtalar_angle_r	mtp_angle_r	hip_flexion_l	hip_adduction_l	hip_rotation_l	knee_angle_l	knee_angle_l_beta	ankle_angle_l	subtalar_angle_l	mtp_angle_l	L5_S1_Flex_Ext	L5_S1_Lat_Bending	L5_S1_axial_rotation	L4_L5_Flex_Ext	L4_L5_Lat_Bending	L4_L5_axial_rotation	L3_L4_Flex_Ext	L3_L4_Lat_Bending	L3_L4_axial_rotation	L2_L3_Flex_Ext	L2_L3_Lat_Bending	L2_L3_axial_rotation	L1_L2_Flex_Ext	L1_L2_Lat_Bending	L1_L2_axial_rotation	L1_T12_Flex_Ext	L1_T12_Lat_Bending	L1_T12_axial_rotation	Abs_r3	Abs_r2	Abs_r1	Abs_t1	Abs_t2	neck_flexion	neck_bending	neck_rotation	arm_flex_r	arm_add_r	arm_rot_r	elbow_flex_r	pro_sup_r	wrist_flex_r	wrist_dev_r	arm_flex_l	arm_add_l	arm_rot_l	elbow_flex_l	pro_sup_l	wrist_flex_l	wrist_dev_l
0.000000	6.494849	-5.862245	96.916164	0.121971	0.616485	0.818748	-4.815227	5.711336	18.230448	4.601765	0.080316	19.428885	-15.589387	0.000000	-1.529016	-6.426756	1.493540	8.294591	0.144768	27.337017	-9.001774	0.000000	-0.019111	0.488197	-0.258855	-0.035490	0.649302	-0.275033	-0.031397	1.187003	-0.275033	-0.021841	1.187003	-0.226498	-0.017746	0.995532	-0.210320	-0.010920	0.756218	-0.194141	-0.136505	5.522585	-1.439673	0.000000	0.000000	21.113349	-7.114248	-7.618634	12.458204	-18.978324	55.346160	64.793127	77.442935	7.595893	9.215499	19.209647	-12.628721	63.925120	59.943725	83.496782	7.371038	5.027382
0.019608	6.360111	-6.006736	96.663095	0.122467	0.617031	0.817574	-4.740202	5.580123	18.135659	4.495145	0.078455	19.148107	-15.507614	0.000000	-0.995754	-6.321586	0.748251	9.334464	0.162917	27.011012	-9.688528	0.000000	0.004542	0.451582	-0.017578	0.008436	0.600604	-0.018677	0.007463	1.097976	-0.018677	0.005192	1.097976	-0.015381	0.004218	0.920865	-0.014282	0.002596	0.699500	-0.013184	0.032446	5.108383	-0.097764	0.000000	0.000000	20.964273	-6.684209	-8.236718	10.067255	-19.222265	51.692125	66.049364	73.245828	5.750114	8.414566	20.347484	-12.333498	64.799280	59.992614	87.602027	8.681023	4.437376
0.039216	6.245388	-6.103760	96.367216	0.122921	0.617518	0.816572	-4.698664	5.455384	18.174531	4.405179	0.076885	18.993667	-15.410856	0.000000	-0.600506	-6.241703	-0.089909	10.179934	0.177673	26.841321	-10.058144	0.000000	0.021764	0.423426	0.177727	0.040418	0.563157	0.188835	0.035757	1.029519	0.188835	0.024874	1.029519	0.155512	0.020210	0.863451	0.144404	0.012436	0.655887	0.133296	0.155460	4.789883	0.988467	0.000000	0.000000	20.745526	-6.347222	-8.581040	8.253509	-19.305684	48.915414	66.828477	70.725338	4.263381	7.907183	21.509439	-12.028200	66.226004	59.814243	89.708841	9.723757	3.982143
0.058824	6.147987	-6.158705	96.035581	0.123337	0.617946	0.815723	-4.687336	5.336197	18.330817	4.330699	0.075585	18.951532	-15.302494	0.000000	-0.331210	-6.183242	-1.004412	10.845260	0.189285	26.810183	-10.143258	0.000000	0.033256	0.402647	0.331778	0.061760	0.535520	0.352514	0.054637	0.978995	0.352514	0.038009	0.978995	0.290306	0.030882	0.821077	0.269570	0.019003	0.623699	0.248833	0.237546	4.554818	1.845249	0.000000	0.000000	20.472397	-6.092719	-8.691549	6.959124	-19.247086	46.932835	67.178438	69.660656	3.102543	7.665240	22.675027	-11.715137	68.114166	59.434661	90.067122	10.522934	3.647705
0.078431	6.065218	-6.176960	95.675245	0.123717	0.618313	0.815008	-4.702943	5.221636	18.588268	4.270535	0.074535	19.007667	-15.185909	0.000000	-0.175804	-6.142337	-1.978730	11.344697	0.198002	26.899832	-9.976509	0.000000	0.039720	0.388158	0.449289	0.073763	0.516250	0.477370	0.065255	0.943768	0.477370	0.045396	0.943768	0.393128	0.036884	0.791532	0.365047	0.022696	0.601257	0.336967	0.283714	4.390923	2.498811	0.000000	0.000000	20.160173	-5.910130	-8.608188	6.126260	-19.064976	45.661198	67.147217	69.830975	2.234452	7.660627	23.823766	-11.396619	70.372639	58.879917	88.926767	11.102248	3.420085
0.098039	5.994387	-6.163913	95.293262	0.124067	0.618619	0.814406	-4.742208	5.110779	18.930635	4.223519	0.073714	19.148036	-15.064481	0.000000	-0.122227	-6.115123	-2.996334	11.692504	0.204073	27.092504	-9.590536	0.000000	0.041856	0.378877	0.534977	0.077730	0.503906	0.568413	0.068765	0.921201	0.568413	0.047837	0.921201	0.468105	0.038867	0.772606	0.434669	0.023916	0.586880	0.401233	0.298971	4.285930	2.975380	0.000000	0.000000	19.824143	-5.788885	-8.370904	5.697074	-18.777860	45.017309	66.782784	71.015488	1.625954	7.865234	24.935172	-11.074957	72.910297	58.176058	86.537672	11.485395	3.285307
0.117647	5.932803	-6.124952	94.896687	0.124388	0.618862	0.813899	-4.801856	5.002702	19.341670	4.188482	0.073103	19.358607	-14.941591	0.000000	-0.158414	-6.097732	-4.040698	11.902937	0.207745	27.370437	-9.017975	0.000000	0.040366	0.373718	0.593557	0.074963	0.497045	0.630654	0.066317	0.908658	0.630654	0.046134	0.908658	0.519362	0.037484	0.762086	0.482265	0.023065	0.578889	0.445168	0.288329	4.227574	3.301185	0.000000	0.000000	19.479593	-5.718415	-8.019642	5.613727	-18.404242	44.917978	66.133110	72.993386	1.243901	8.250951	25.988764	-10.752460	75.636014	57.349132	83.149735	11.696068	3.229393
0.137255	5.877773	-6.065466	94.492575	0.124686	0.619042	0.813467	-4.878610	4.896483	19.805123	4.164255	0.072680	19.625344	-14.820621	0.000000	-0.272305	-6.086300	-5.095292	11.990254	0.209269	27.715866	-8.291466	0.000000	0.035951	0.371598	0.629745	0.066765	0.494225	0.669105	0.059064	0.903503	0.669105	0.041088	0.903503	0.551027	0.033384	0.757762	0.511668	0.020542	0.575605	0.472309	0.256795	4.203589	3.502455	0.000000	0.000000	19.141812	-5.688151	-7.594349	5.818376	-17.962629	45.280013	65.246167	75.543863	1.055142	8.789667	26.964057	-10.431439	78.458663	56.425188	79.012851	11.757963	3.238365
